<svg xmlns="http://www.w3.org/2000/svg" viewBox="0 0 32 32" id="juice-glass">
  <path d="M22 2h-4a1 1 0 0 0-.93.63L15.32 7h-3.15a2.25 2.25 0 0 0-2.25 2.25V16a6 6 0 0 0 5 6l.08 6h-2a1 1 0 0 0 0 2h6a1 1 0 0 0 0-2h-2v-6.09a6 6 0 0 0 5-6V9.25A2.25 2.25 0 0 0 19.75 7h-2.27l1.2-3H22a1 1 0 0 0 0-2Zm-6 18a4 4 0 0 1-4-4v-1.86a9.14 9.14 0 0 0 4.5-1c2.12-1 3.22-.09 3.59.33V16A4 4 0 0 1 16 20Zm4-10.75v1.85a5.32 5.32 0 0 0-4.41.24 6.84 6.84 0 0 1-3.67.79V9.25a.25.25 0 0 1 .25-.25h7.58a.25.25 0 0 1 .25.25Z"></path>
</svg>
