<?xml version="1.0" encoding="UTF-8" standalone="no"?>
<!-- Created with Inkscape (http://www.inkscape.org/) -->

<svg
   width="3840"
   height="2160"
   viewBox="0 0 3840 2160"
   version="1.1"
   id="svg1"
   inkscape:version="1.3.2 (091e20e, 2023-11-25, custom)"
   sodipodi:docname="splash_logo5.svg"
   xmlns:inkscape="http://www.inkscape.org/namespaces/inkscape"
   xmlns:sodipodi="http://sodipodi.sourceforge.net/DTD/sodipodi-0.dtd"
   xmlns:xlink="http://www.w3.org/1999/xlink"
   xmlns="http://www.w3.org/2000/svg"
   xmlns:svg="http://www.w3.org/2000/svg">
  <sodipodi:namedview
     id="namedview1"
     pagecolor="#ffffff"
     bordercolor="#000000"
     borderopacity="0.25"
     inkscape:showpageshadow="2"
     inkscape:pageopacity="0.0"
     inkscape:pagecheckerboard="0"
     inkscape:deskcolor="#d1d1d1"
     inkscape:document-units="px"
     inkscape:zoom="0.96459612"
     inkscape:cx="1648.3583"
     inkscape:cy="1289.1406"
     inkscape:window-width="1920"
     inkscape:window-height="1027"
     inkscape:window-x="-8"
     inkscape:window-y="-8"
     inkscape:window-maximized="1"
     inkscape:current-layer="layer2" />
  <defs
     id="defs1">
    <inkscape:path-effect
       effect="powerstroke"
       id="path-effect70"
       is_visible="true"
       lpeversion="1.3"
       scale_width="1"
       interpolator_type="CentripetalCatmullRom"
       interpolator_beta="0.75"
       start_linecap_type="round"
       end_linecap_type="round"
       offset_points="5.2287083,44.853117"
       linejoin_type="spiro"
       miter_limit="4"
       not_jump="true"
       sort_points="true"
       message="&lt;b&gt;Ctrl + clic&lt;/b&gt; sobre un nodo existente y muévalo" />
    <inkscape:path-effect
       effect="simplify"
       id="path-effect69"
       is_visible="true"
       lpeversion="1.3"
       threshold="0.014660634"
       steps="1"
       smooth_angles="0"
       helper_size="0"
       simplify_individual_paths="false"
       simplify_just_coalesce="false"
       step="1" />
    <inkscape:path-effect
       effect="powerstroke"
       id="path-effect68"
       is_visible="true"
       lpeversion="1.3"
       scale_width="1"
       interpolator_type="CentripetalCatmullRom"
       interpolator_beta="0.75"
       start_linecap_type="round"
       end_linecap_type="round"
       offset_points="9.1722383,35.725782"
       linejoin_type="spiro"
       miter_limit="4"
       not_jump="true"
       sort_points="true"
       message="&lt;b&gt;Ctrl + clic&lt;/b&gt; sobre un nodo existente y muévalo" />
    <inkscape:path-effect
       effect="simplify"
       id="path-effect67"
       is_visible="true"
       lpeversion="1.3"
       threshold="0.01"
       steps="1"
       smooth_angles="0"
       helper_size="0"
       simplify_individual_paths="false"
       simplify_just_coalesce="false"
       step="1" />
    <inkscape:path-effect
       effect="powerstroke"
       id="path-effect66"
       is_visible="true"
       lpeversion="1.3"
       scale_width="1"
       interpolator_type="CentripetalCatmullRom"
       interpolator_beta="0.75"
       start_linecap_type="round"
       end_linecap_type="round"
       offset_points="7.2948883,35.725782"
       linejoin_type="spiro"
       miter_limit="4"
       not_jump="true"
       sort_points="true"
       message="&lt;b&gt;Ctrl + clic&lt;/b&gt; sobre un nodo existente y muévalo" />
    <inkscape:path-effect
       effect="simplify"
       id="path-effect65"
       is_visible="true"
       lpeversion="1.3"
       threshold="0.014201184"
       steps="1"
       smooth_angles="0"
       helper_size="0"
       simplify_individual_paths="false"
       simplify_just_coalesce="false"
       step="1" />
    <inkscape:path-effect
       effect="powerstroke"
       id="path-effect64"
       is_visible="true"
       lpeversion="1.3"
       scale_width="1"
       interpolator_type="CentripetalCatmullRom"
       interpolator_beta="0.75"
       start_linecap_type="round"
       end_linecap_type="round"
       offset_points="4.6315473,35.725782"
       linejoin_type="spiro"
       miter_limit="4"
       not_jump="true"
       sort_points="true"
       message="&lt;b&gt;Ctrl + clic&lt;/b&gt; sobre un nodo existente y muévalo" />
    <inkscape:path-effect
       effect="simplify"
       id="path-effect63"
       is_visible="true"
       lpeversion="1.3"
       threshold="0.014201184"
       steps="1"
       smooth_angles="0"
       helper_size="0"
       simplify_individual_paths="false"
       simplify_just_coalesce="false"
       step="1" />
    <inkscape:path-effect
       effect="powerstroke"
       id="path-effect62"
       is_visible="true"
       lpeversion="1.3"
       scale_width="1"
       interpolator_type="CentripetalCatmullRom"
       interpolator_beta="0.75"
       start_linecap_type="round"
       end_linecap_type="round"
       offset_points="6.8047834,35.725782"
       linejoin_type="spiro"
       miter_limit="4"
       not_jump="true"
       sort_points="true"
       message="&lt;b&gt;Ctrl + clic&lt;/b&gt; sobre un nodo existente y muévalo" />
    <inkscape:path-effect
       effect="simplify"
       id="path-effect61"
       is_visible="true"
       lpeversion="1.3"
       threshold="0.014201184"
       steps="1"
       smooth_angles="0"
       helper_size="0"
       simplify_individual_paths="false"
       simplify_just_coalesce="false"
       step="1" />
    <rect
       x="1388.5421"
       y="766.91346"
       width="1571.9345"
       height="523.97813"
       id="rect35" />
    <rect
       x="1433.7947"
       y="938.39721"
       width="857.41877"
       height="407.27392"
       id="rect34" />
    <inkscape:path-effect
       effect="fillet_chamfer"
       id="path-effect34"
       is_visible="true"
       lpeversion="1"
       nodesatellites_param="F,0,0,1,0,0,0,1 @ F,0,0,1,0,0,0,1 @ F,0,0,1,0,0,0,1 @ F,0,0,1,0,0,0,1 @ F,0,0,1,0,0,0,1 @ F,0,0,1,0,0,0,1 @ F,0,0,1,0,0,0,1 @ F,0,0,1,0,0,0,1 @ F,0,1,1,0,32.059442,0,1 @ F,0,0,1,0,32.059442,0,1 @ F,0,0,1,0,0,0,1 @ F,0,0,1,0,0,0,1 @ F,0,0,1,0,0,0,1 @ F,0,0,1,0,0,0,1"
       radius="0"
       unit="px"
       method="auto"
       mode="F"
       chamfer_steps="1"
       flexible="false"
       use_knot_distance="true"
       apply_no_radius="true"
       apply_with_radius="true"
       only_selected="false"
       hide_knots="false" />
    <linearGradient
       id="linearGradient12"
       inkscape:collect="always">
      <stop
         style="stop-color:#86a68b;stop-opacity:1;"
         offset="0"
         id="stop13" />
      <stop
         style="stop-color:#f26a4b;stop-opacity:1;"
         offset="0.75023782"
         id="stop15" />
      <stop
         style="stop-color:#f24c3d;stop-opacity:1;"
         offset="1"
         id="stop14" />
    </linearGradient>
    <linearGradient
       id="linearGradient2"
       inkscape:collect="always">
      <stop
         style="stop-color:#86a68b;stop-opacity:1;"
         offset="0"
         id="stop2" />
      <stop
         style="stop-color:#f26a4b;stop-opacity:1;"
         offset="0.62452054"
         id="stop4" />
      <stop
         style="stop-color:#f24c3d;stop-opacity:1;"
         offset="1"
         id="stop3" />
    </linearGradient>
    <linearGradient
       inkscape:collect="always"
       xlink:href="#linearGradient2"
       id="linearGradient3"
       x1="1377.6686"
       y1="357.34961"
       x2="2610.4641"
       y2="1836.6011"
       gradientUnits="userSpaceOnUse"
       gradientTransform="matrix(1.0750169,0,0,1.0515901,-100.98597,2.2388815)" />
    <linearGradient
       inkscape:collect="always"
       xlink:href="#linearGradient12"
       id="linearGradient14"
       x1="1161.5598"
       y1="145.00458"
       x2="2772.4792"
       y2="1970.1718"
       gradientUnits="userSpaceOnUse" />
  </defs>
  <g
     inkscape:label="Capa 1"
     inkscape:groupmode="layer"
     id="layer1"
     style="fill:none;image-rendering:auto">
    <path
       style="color:#000000;fill:url(#linearGradient14);stroke-linejoin:round;-inkscape-stroke:none;paint-order:stroke fill markers"
       d="m 1327.1074,139.57031 c -91.669,0 -174.3355,74.52941 -166.0957,168.59961 l 54.791,-4.79883 c -5.1699,-59.02318 49.2941,-108.80078 111.3047,-108.80078 H 2610.084 c 62.0805,0 111.1992,49.1207 111.1992,111.20117 V 1799.9492 c 0,62.0804 -49.1187,111.1992 -111.1992,111.1992 H 1359.1668 a 32.059442,32.059442 135 0 0 -32.0594,32.0594 27.875411,27.875411 35.586116 0 0 32.0594,22.9406 l 1250.9172,0 c 91.5991,0 166.1992,-74.6001 166.1992,-166.1992 V 305.77148 c 0,-91.59907 -74.6001,-166.20117 -166.1992,-166.20117 z"
       id="rect1"
       sodipodi:nodetypes="sccsssssccsssss"
       inkscape:path-effect="#path-effect34"
       inkscape:original-d="m 1327.1074,139.57031 c -91.669,0 -174.3355,74.52941 -166.0957,168.59961 l 54.791,-4.79883 c -5.1699,-59.02318 49.2941,-108.80078 111.3047,-108.80078 H 2610.084 c 62.0805,0 111.1992,49.1207 111.1992,111.20117 V 1799.9492 c 0,62.0804 -49.1187,111.1992 -111.1992,111.1992 H 1327.1074 v 55 H 2610.084 c 91.5991,0 166.1992,-74.6001 166.1992,-166.1992 V 305.77148 c 0,-91.59907 -74.6001,-166.20117 -166.1992,-166.20117 z" />
  </g>
  <g
     inkscape:groupmode="layer"
     id="layer2"
     inkscape:label="Capa 2">
    <path
       id="rect1-3"
       style="fill:url(#linearGradient3);stroke-width:57.9826;stroke-linejoin:round;paint-order:stroke fill markers"
       inkscape:label="rect1-3"
       d="m 2469.5273,138.82227 -1151.8027,7.51367 c -112.944,0.73679 -157.9374,93.81033 -157.791,155.91211 0,0 -6.2066,907.10985 -139.2031,1295.35355 -82.31502,240.2938 189.452,237.8995 253.1172,238.0468 l 1012.7461,2.3438 c 208.6489,0.4829 296.2322,-474.2884 297.7011,-867.43361 l 2.5332,-678.33007 c 0.2505,-67.05001 17.8031,-154.2876 -117.3008,-153.40625 z m -782.5058,833.33593 0.08,0.002 c 0.017,4.3e-4 8.2657,-26.95376 -0.045,0 -0,0.0149 22.3397,-10.56075 29.2528,32.1548 8.5117,52.5935 -24.8263,59.1997 -24.8263,59.1997 -0.01,0.013 31.0811,-2.0834 31.0701,-2.0874 -1.3785,-0.6363 -33.803,1.0158 -35.0034,0.7687 -0.01,0 -0.015,-0.01 -0.029,-0.01 -0.9862,-0.2115 -2.0645,-0.3309 -3.207,-0.3653 -0.027,-8e-4 -0.053,8e-4 -0.08,0 -0.5144,-0.015 -1.3135,-0.013 -2.543,0.051 -0.014,8e-4 -0.029,-7e-4 -0.043,0 -3.9668,0.2008 -7.6471,0.7985 -10.9804,1.6719 -0.01,0 -0.018,0.01 -0.027,0.01 -3.509,0.9146 -6.854,2.1972 -9.9668,3.7168 -0.01,0 -0.014,0.01 -0.019,0.01 -3.898,1.8976 -7.6092,4.2546 -11.0703,6.8516 -3.5149,2.6373 -6.7867,5.5282 -9.7871,8.461 -0.9751,0.9531 -1.94,1.9301 -2.8906,2.9218 -4.8364,5.0457 -9.3724,10.5522 -13.6641,16.293 -5.3592,7.1689 -10.3023,14.6524 -14.8809,22.041 v 0.01 c -5.9789,9.6555 -11.5386,19.4942 -16.5273,28.6093 v 0.01 c -11.3603,20.7688 -21.518,40.7886 -31.2695,58.7636 -7.7443,14.2751 -13.8221,24.8224 -19.4297,33.9766 -12.9267,21.1025 -40.514,27.7311 -61.6292,14.8251 -21.1152,-12.906 -27.796,-40.4797 -14.9118,-61.6083 4.6454,-7.6179 9.971,-16.7912 17.121,-29.9707 9.0573,-16.6952 19.074,-36.4717 31.4278,-59.0528 5.3584,-9.7945 11.7846,-21.2015 18.9629,-32.7929 l 0.01,-0.01 c 5.4848,-8.8512 10.578,-19.7928 19.2871,-28.5019 l 0.01,-0.01 c 6.9618,-6.9618 12.7836,-16.3453 20.75,-24.6563 1.5924,-1.6613 3.2402,-3.3273 4.9434,-4.9921 5.1835,-5.0667 11.4154,-10.6308 18.6543,-16.0625 7.1659,-5.37691 15.714,-10.91353 25.584,-15.72852 7.9908,-3.89827 16.9029,-7.34477 26.6289,-9.88867 9.2708,-2.42485 19.031,-3.96259 29.123,-4.47656 0.01,-5.1e-4 -0.034,3.3e-4 -0.027,0 l 0.043,-0.002 c 0.01,-4.6e-4 -0.022,0.002 -0.016,0.002 2.7938,-0.1445 6.2099,-0.24493 9.9668,-0.12695 0.011,3.5e-4 31.0773,-5.18739 31.0661,-5.18552 z"
       sodipodi:nodetypes="sscscsccsssssssssssssssssssssssssssssssssssssssssssssss" />
  </g>
</svg>
