<?xml version="1.0" encoding="UTF-8" standalone="no"?>
<!-- Created with Inkscape (http://www.inkscape.org/) -->

<svg
   width="3840"
   height="2160"
   viewBox="0 0 3840 2160"
   version="1.1"
   id="svg1"
   inkscape:version="1.3.2 (091e20e, 2023-11-25, custom)"
   sodipodi:docname="splash_logo.svg"
   xmlns:inkscape="http://www.inkscape.org/namespaces/inkscape"
   xmlns:sodipodi="http://sodipodi.sourceforge.net/DTD/sodipodi-0.dtd"
   xmlns:xlink="http://www.w3.org/1999/xlink"
   xmlns="http://www.w3.org/2000/svg"
   xmlns:svg="http://www.w3.org/2000/svg">
  <sodipodi:namedview
     id="namedview1"
     pagecolor="#ffffff"
     bordercolor="#000000"
     borderopacity="0.25"
     inkscape:showpageshadow="2"
     inkscape:pageopacity="0.0"
     inkscape:pagecheckerboard="0"
     inkscape:deskcolor="#d1d1d1"
     inkscape:document-units="px"
     inkscape:zoom="0.41986485"
     inkscape:cx="1648.1494"
     inkscape:cy="1089.6363"
     inkscape:window-width="1920"
     inkscape:window-height="1027"
     inkscape:window-x="-8"
     inkscape:window-y="-8"
     inkscape:window-maximized="1"
     inkscape:current-layer="layer2" />
  <defs
     id="defs1">
    <inkscape:path-effect
       effect="powerstroke"
       id="path-effect70"
       is_visible="true"
       lpeversion="1.3"
       scale_width="1"
       interpolator_type="CentripetalCatmullRom"
       interpolator_beta="0.75"
       start_linecap_type="round"
       end_linecap_type="round"
       offset_points="5.2287083,44.853117"
       linejoin_type="spiro"
       miter_limit="4"
       not_jump="true"
       sort_points="true"
       message="&lt;b&gt;Ctrl + clic&lt;/b&gt; sobre un nodo existente y muévalo" />
    <inkscape:path-effect
       effect="simplify"
       id="path-effect69"
       is_visible="true"
       lpeversion="1.3"
       threshold="0.014660634"
       steps="1"
       smooth_angles="0"
       helper_size="0"
       simplify_individual_paths="false"
       simplify_just_coalesce="false"
       step="1" />
    <inkscape:path-effect
       effect="powerstroke"
       id="path-effect68"
       is_visible="true"
       lpeversion="1.3"
       scale_width="1"
       interpolator_type="CentripetalCatmullRom"
       interpolator_beta="0.75"
       start_linecap_type="round"
       end_linecap_type="round"
       offset_points="9.1722383,35.725782"
       linejoin_type="spiro"
       miter_limit="4"
       not_jump="true"
       sort_points="true"
       message="&lt;b&gt;Ctrl + clic&lt;/b&gt; sobre un nodo existente y muévalo" />
    <inkscape:path-effect
       effect="simplify"
       id="path-effect67"
       is_visible="true"
       lpeversion="1.3"
       threshold="0.01"
       steps="1"
       smooth_angles="0"
       helper_size="0"
       simplify_individual_paths="false"
       simplify_just_coalesce="false"
       step="1" />
    <inkscape:path-effect
       effect="powerstroke"
       id="path-effect66"
       is_visible="true"
       lpeversion="1.3"
       scale_width="1"
       interpolator_type="CentripetalCatmullRom"
       interpolator_beta="0.75"
       start_linecap_type="round"
       end_linecap_type="round"
       offset_points="7.2948883,35.725782"
       linejoin_type="spiro"
       miter_limit="4"
       not_jump="true"
       sort_points="true"
       message="&lt;b&gt;Ctrl + clic&lt;/b&gt; sobre un nodo existente y muévalo" />
    <inkscape:path-effect
       effect="simplify"
       id="path-effect65"
       is_visible="true"
       lpeversion="1.3"
       threshold="0.014201184"
       steps="1"
       smooth_angles="0"
       helper_size="0"
       simplify_individual_paths="false"
       simplify_just_coalesce="false"
       step="1" />
    <inkscape:path-effect
       effect="powerstroke"
       id="path-effect64"
       is_visible="true"
       lpeversion="1.3"
       scale_width="1"
       interpolator_type="CentripetalCatmullRom"
       interpolator_beta="0.75"
       start_linecap_type="round"
       end_linecap_type="round"
       offset_points="4.6315473,35.725782"
       linejoin_type="spiro"
       miter_limit="4"
       not_jump="true"
       sort_points="true"
       message="&lt;b&gt;Ctrl + clic&lt;/b&gt; sobre un nodo existente y muévalo" />
    <inkscape:path-effect
       effect="simplify"
       id="path-effect63"
       is_visible="true"
       lpeversion="1.3"
       threshold="0.014201184"
       steps="1"
       smooth_angles="0"
       helper_size="0"
       simplify_individual_paths="false"
       simplify_just_coalesce="false"
       step="1" />
    <inkscape:path-effect
       effect="powerstroke"
       id="path-effect62"
       is_visible="true"
       lpeversion="1.3"
       scale_width="1"
       interpolator_type="CentripetalCatmullRom"
       interpolator_beta="0.75"
       start_linecap_type="round"
       end_linecap_type="round"
       offset_points="6.8047834,35.725782"
       linejoin_type="spiro"
       miter_limit="4"
       not_jump="true"
       sort_points="true"
       message="&lt;b&gt;Ctrl + clic&lt;/b&gt; sobre un nodo existente y muévalo" />
    <inkscape:path-effect
       effect="simplify"
       id="path-effect61"
       is_visible="true"
       lpeversion="1.3"
       threshold="0.014201184"
       steps="1"
       smooth_angles="0"
       helper_size="0"
       simplify_individual_paths="false"
       simplify_just_coalesce="false"
       step="1" />
    <rect
       x="1388.5421"
       y="766.91346"
       width="1571.9345"
       height="523.97813"
       id="rect35" />
    <rect
       x="1433.7947"
       y="938.39721"
       width="857.41877"
       height="407.27392"
       id="rect34" />
    <inkscape:path-effect
       effect="fillet_chamfer"
       id="path-effect34"
       is_visible="true"
       lpeversion="1"
       nodesatellites_param="F,0,0,1,0,0,0,1 @ F,0,0,1,0,0,0,1 @ F,0,0,1,0,0,0,1 @ F,0,0,1,0,0,0,1 @ F,0,0,1,0,0,0,1 @ F,0,0,1,0,0,0,1 @ F,0,0,1,0,0,0,1 @ F,0,0,1,0,0,0,1 @ F,0,1,1,0,32.059442,0,1 @ F,0,0,1,0,32.059442,0,1 @ F,0,0,1,0,0,0,1 @ F,0,0,1,0,0,0,1 @ F,0,0,1,0,0,0,1 @ F,0,0,1,0,0,0,1"
       radius="0"
       unit="px"
       method="auto"
       mode="F"
       chamfer_steps="1"
       flexible="false"
       use_knot_distance="true"
       apply_no_radius="true"
       apply_with_radius="true"
       only_selected="false"
       hide_knots="false" />
    <linearGradient
       id="linearGradient12"
       inkscape:collect="always">
      <stop
         style="stop-color:#86a68b;stop-opacity:1;"
         offset="0"
         id="stop13" />
      <stop
         style="stop-color:#f26a4b;stop-opacity:1;"
         offset="0.75023782"
         id="stop15" />
      <stop
         style="stop-color:#f24c3d;stop-opacity:1;"
         offset="1"
         id="stop14" />
    </linearGradient>
    <linearGradient
       id="linearGradient2"
       inkscape:collect="always">
      <stop
         style="stop-color:#86a68b;stop-opacity:1;"
         offset="0"
         id="stop2" />
      <stop
         style="stop-color:#f26a4b;stop-opacity:1;"
         offset="0.62452054"
         id="stop4" />
      <stop
         style="stop-color:#f24c3d;stop-opacity:1;"
         offset="1"
         id="stop3" />
    </linearGradient>
    <linearGradient
       inkscape:collect="always"
       xlink:href="#linearGradient2"
       id="linearGradient3"
       x1="1377.6686"
       y1="357.34961"
       x2="2610.4641"
       y2="1836.6011"
       gradientUnits="userSpaceOnUse"
       gradientTransform="matrix(1.0750169,0,0,1.0515901,-100.98597,2.2388815)" />
    <linearGradient
       inkscape:collect="always"
       xlink:href="#linearGradient12"
       id="linearGradient14"
       x1="1161.5598"
       y1="145.00458"
       x2="2772.4792"
       y2="1970.1718"
       gradientUnits="userSpaceOnUse" />
  </defs>
  <g
     inkscape:label="Capa 1"
     inkscape:groupmode="layer"
     id="layer1"
     style="fill:none;image-rendering:auto">
    <path
       style="color:#000000;fill:url(#linearGradient14);stroke-linejoin:round;-inkscape-stroke:none;paint-order:stroke fill markers"
       d="m 1327.1074,139.57031 c -91.669,0 -174.3355,74.52941 -166.0957,168.59961 l 54.791,-4.79883 c -5.1699,-59.02318 49.2941,-108.80078 111.3047,-108.80078 H 2610.084 c 62.0805,0 111.1992,49.1207 111.1992,111.20117 V 1799.9492 c 0,62.0804 -49.1187,111.1992 -111.1992,111.1992 H 1359.1668 a 32.059442,32.059442 135 0 0 -32.0594,32.0594 27.875411,27.875411 35.586116 0 0 32.0594,22.9406 l 1250.9172,0 c 91.5991,0 166.1992,-74.6001 166.1992,-166.1992 V 305.77148 c 0,-91.59907 -74.6001,-166.20117 -166.1992,-166.20117 z"
       id="rect1"
       sodipodi:nodetypes="sccsssssccsssss"
       inkscape:path-effect="#path-effect34"
       inkscape:original-d="m 1327.1074,139.57031 c -91.669,0 -174.3355,74.52941 -166.0957,168.59961 l 54.791,-4.79883 c -5.1699,-59.02318 49.2941,-108.80078 111.3047,-108.80078 H 2610.084 c 62.0805,0 111.1992,49.1207 111.1992,111.20117 V 1799.9492 c 0,62.0804 -49.1187,111.1992 -111.1992,111.1992 H 1327.1074 v 55 H 2610.084 c 91.5991,0 166.1992,-74.6001 166.1992,-166.1992 V 305.77148 c 0,-91.59907 -74.6001,-166.20117 -166.1992,-166.20117 z" />
  </g>
  <g
     inkscape:groupmode="layer"
     id="layer2"
     inkscape:label="Capa 2">
    <path
       id="rect1-3"
       style="fill:url(#linearGradient3);stroke-width:57.9826;stroke-linejoin:round;paint-order:stroke fill markers"
       inkscape:label="rect1-3"
       d="M 2469.5273 138.82227 L 1317.7246 146.33594 C 1204.7806 147.07273 1159.7872 240.14627 1159.9336 302.24805 C 1159.9336 302.24805 1153.727 1209.3579 1020.7305 1597.6016 C 938.41548 1837.8954 1210.1825 1835.5011 1273.8477 1835.6484 L 2286.5938 1837.9922 C 2495.2427 1838.4751 2582.826 1363.7038 2584.2949 970.55859 L 2586.8281 292.22852 C 2587.0786 225.17851 2604.6312 137.94092 2469.5273 138.82227 z M 1687.0215 972.1582 L 1687.1016 972.16016 C 1687.0846 972.15962 1687.0736 972.16069 1687.0566 972.16016 C 1693.0515 972.34247 1699.2947 973.02077 1705.6582 974.33398 C 1713.6901 975.98823 1721.5636 978.58754 1729.1016 982.07227 L 1729.1113 982.07617 C 1738.3515 986.3437 1746.6108 991.7063 1753.9375 997.58594 L 1753.9414 997.58984 C 1761.3913 1003.5677 1767.8768 1010.0627 1773.5664 1016.5508 C 1773.5703 1016.5553 1773.5742 1016.56 1773.5781 1016.5645 C 1779.5098 1023.3341 1784.7519 1030.2921 1789.4727 1037.1152 C 1789.4766 1037.1209 1789.4804 1037.1271 1789.4844 1037.1328 C 1795.1718 1045.3612 1800.2817 1053.655 1804.998 1061.7012 C 1805.001 1061.7063 1805.0048 1061.7117 1805.0078 1061.7168 C 1811.1337 1072.1773 1816.8878 1082.7374 1822.3203 1092.6055 C 1827.8071 1102.5724 1832.9908 1111.9124 1838.4141 1120.8691 C 1842.4713 1127.5641 1846.4797 1133.7412 1850.6406 1139.4395 C 1850.6421 1139.4414 1850.6431 1139.4433 1850.6445 1139.4453 L 1850.6465 1139.4473 C 1854.209 1144.3205 1857.7057 1148.5961 1861.25 1152.3145 C 1864.4151 1155.6327 1867.4433 1158.314 1870.3535 1160.4277 C 1870.358 1160.431 1870.3627 1160.4342 1870.3672 1160.4375 C 1873.1223 1162.4401 1875.7512 1163.9023 1878.1641 1164.8945 C 1878.172 1164.8978 1878.1815 1164.901 1878.1895 1164.9043 C 1879.6055 1165.4876 1881.0386 1165.9499 1882.4648 1166.291 C 1882.4717 1166.2927 1882.4794 1166.2933 1882.4863 1166.2949 C 1886.8947 1167.3516 1891.4378 1167.9823 1896.0176 1168.1719 C 1896.0258 1168.1722 1896.0328 1168.1715 1896.041 1168.1719 C 1900.7965 1168.3714 1905.7785 1168.1085 1910.9219 1167.3867 L 1910.9355 1167.3848 C 1916.7359 1166.5723 1922.7683 1165.1813 1929.0391 1163.2617 C 1936.2031 1161.0682 1943.5059 1158.2462 1951.0527 1154.9023 C 1959.6476 1151.0912 1968.2868 1146.7287 1977.1738 1141.957 C 1989.3921 1135.3924 2001.4578 1128.3941 2014.3047 1121.0566 C 2026.4818 1114.1016 2039.1394 1106.9585 2052.2969 1100.2188 C 2063.0104 1094.7338 2074.1587 1089.4635 2085.8125 1084.7812 C 2096.5638 1080.4634 2107.776 1076.6371 2119.4414 1073.6777 C 2130.304 1070.921 2141.4824 1068.9425 2152.8809 1068.002 C 2152.8967 1068.0006 2152.9119 1067.9993 2152.9277 1067.998 C 2158.0068 1067.5844 2163.2553 1067.3453 2168.6426 1067.3887 C 2168.6489 1067.3887 2168.6558 1067.3886 2168.6621 1067.3887 C 2175.1944 1067.444 2181.4322 1067.8858 2187.2695 1068.5508 C 2187.2777 1068.5517 2187.2867 1068.5538 2187.2949 1068.5547 C 2194.1418 1069.3385 2200.7775 1070.4706 2207.1816 1071.9102 C 2207.1897 1071.912 2207.199 1071.9123 2207.207 1071.9141 C 2213.2532 1073.2766 2219.2072 1074.9402 2225.0547 1076.9727 C 2225.0647 1076.9761 2225.0759 1076.9789 2225.0859 1076.9824 C 2230.2466 1078.7803 2235.4052 1080.8933 2240.498 1083.4531 C 2240.51 1083.4591 2240.5232 1083.4666 2240.5352 1083.4727 C 2244.9568 1085.7001 2249.3731 1088.2864 2253.6719 1091.3789 C 2253.6814 1091.3857 2253.6917 1091.3935 2253.7012 1091.4004 C 2257.1787 1093.9062 2260.4058 1096.6224 2263.377 1099.5918 A 44.853117 44.853117 0 0 1 2199.9629 1163.041 C 2200.6409 1163.7186 2201.1299 1164.0875 2201.2578 1164.1797 C 2201.2673 1164.1865 2201.2776 1164.1943 2201.2871 1164.2012 C 2201.3861 1164.2724 2201.1092 1164.058 2200.1934 1163.5957 C 2199.1242 1163.0594 2197.6468 1162.4192 2195.5879 1161.7012 C 2193.2612 1160.8931 2190.5907 1160.1276 2187.4961 1159.4297 C 2184.2226 1158.6943 2180.7558 1158.0983 2177.1035 1157.6797 C 2173.9609 1157.3221 2170.8878 1157.1171 2167.9023 1157.0918 C 2165.6348 1157.0742 2163.1073 1157.1729 2160.2344 1157.4062 C 2154.322 1157.8955 2148.0786 1158.9614 2141.5078 1160.6289 L 2141.5039 1160.6289 C 2134.3873 1162.4343 2127.0105 1164.9056 2119.252 1168.0215 C 2110.8083 1171.414 2102.2121 1175.4431 2093.1855 1180.0645 C 2081.9924 1185.7979 2070.8531 1192.0661 2058.7949 1198.9531 C 2046.6762 1205.8747 2033.1716 1213.7053 2019.627 1220.9824 L 2019.6152 1220.9883 C 2009.5416 1226.3973 1998.7637 1231.878 1987.4102 1236.9121 L 1987.4004 1236.916 C 1977.4128 1241.3416 1966.6811 1245.5545 1955.3008 1249.0391 C 1945.2829 1252.1058 1934.5955 1254.6518 1923.3828 1256.2227 C 1913.3499 1257.6303 1902.9221 1258.2452 1892.2812 1257.7988 C 1881.9837 1257.371 1871.6874 1255.9548 1861.5762 1253.5312 C 1855.5615 1252.0915 1849.697 1250.1841 1844.0371 1247.8535 C 1834.2941 1243.8458 1825.4707 1238.7028 1817.625 1233 C 1809.5477 1227.1319 1802.487 1220.6802 1796.3301 1214.2246 L 1796.3242 1214.2168 C 1789.462 1207.0185 1783.477 1199.5723 1778.2109 1192.3672 C 1778.2075 1192.3625 1778.2046 1192.3563 1778.2012 1192.3516 C 1772.0538 1183.9338 1766.5983 1175.4507 1761.6914 1167.3535 L 1761.6836 1167.3398 C 1755.1892 1156.6145 1749.1966 1145.7896 1743.7344 1135.8672 C 1738.018 1125.4835 1732.9727 1116.2253 1727.6035 1107.0566 C 1723.5514 1100.1439 1719.6777 1093.9058 1715.6973 1088.1465 C 1712.3999 1083.3812 1709.2532 1079.2735 1706.1133 1075.6895 C 1703.1047 1072.2593 1700.3551 1069.6057 1697.7988 1067.5547 L 1697.7949 1067.5508 C 1695.3554 1065.5929 1693.2298 1064.3155 1691.4922 1063.5137 C 1691.4813 1063.5086 1691.4718 1063.505 1691.4609 1063.5 C 1690.0828 1062.8628 1688.759 1062.4424 1687.5586 1062.1953 C 1687.5487 1062.1933 1687.5392 1062.1915 1687.5293 1062.1895 C 1686.5415 1061.9855 1685.4648 1061.8586 1684.3223 1061.8242 C 1684.2953 1061.8234 1684.2691 1061.8231 1684.2422 1061.8223 C 1683.7278 1061.8059 1682.9287 1061.8094 1681.6992 1061.873 C 1681.685 1061.8738 1681.6704 1061.8743 1681.6562 1061.875 C 1677.6894 1062.0765 1674.0091 1062.6735 1670.6758 1063.5469 C 1670.6666 1063.5493 1670.6576 1063.5523 1670.6484 1063.5547 C 1667.14 1064.4715 1663.7944 1065.7519 1660.6816 1067.2715 C 1660.6751 1067.2747 1660.6687 1067.2781 1660.6621 1067.2812 C 1656.7653 1069.1812 1653.0527 1071.5356 1649.5918 1074.1328 C 1646.0767 1076.7699 1642.8051 1079.661 1639.8047 1082.5938 C 1638.8296 1083.5469 1637.8648 1084.524 1636.9141 1085.5156 C 1632.0778 1090.5614 1627.5428 1096.0686 1623.25 1101.8086 C 1617.8919 1108.9783 1612.9477 1116.461 1608.3691 1123.8496 L 1608.3652 1123.8555 C 1602.3863 1133.511 1596.8266 1143.3497 1591.8379 1152.4648 L 1591.834 1152.4727 C 1580.4737 1173.2415 1570.3148 1193.2606 1560.5645 1211.2363 C 1552.819 1225.5107 1546.7334 1236.0532 1541.1348 1245.2129 A 44.853117 44.853117 0 0 1 1464.5938 1198.4297 C 1469.2471 1190.8166 1474.5637 1181.6379 1481.7148 1168.459 C 1490.771 1151.7632 1500.7904 1131.9881 1513.1426 1109.4062 C 1518.5026 1099.6125 1524.9272 1088.2047 1532.1055 1076.6133 L 1532.1113 1076.6035 C 1537.5961 1067.7523 1544.0252 1057.9673 1551.3984 1048.1016 L 1551.4062 1048.0918 C 1557.3026 1040.2072 1564.1901 1031.7468 1572.1562 1023.4355 C 1573.7489 1021.7745 1575.3964 1020.1082 1577.0996 1018.4434 C 1582.2831 1013.3767 1588.5146 1007.8121 1595.7539 1002.3809 C 1602.9194 997.00344 1611.4672 991.46584 1621.3379 986.65234 C 1629.328 982.75258 1638.2403 979.30551 1647.9668 976.76367 C 1657.2371 974.33676 1666.9978 972.80096 1677.0898 972.28711 C 1677.0822 972.2875 1677.0702 972.28671 1677.0625 972.28711 L 1677.1055 972.28516 C 1677.1002 972.28543 1677.0952 972.28684 1677.0898 972.28711 C 1679.8836 972.14292 1683.2997 972.04218 1687.0566 972.16016 C 1687.0452 972.15981 1687.033 972.15855 1687.0215 972.1582 z M 2345.9922 1222.7773 A 30.005877 30.005877 0 0 1 2375.998 1252.7832 A 30.005877 30.005877 0 0 1 2345.9922 1282.7891 A 30.005877 30.005877 0 0 1 2315.9863 1252.7832 A 30.005877 30.005877 0 0 1 2345.9922 1222.7773 z " />
  </g>
</svg>
